# xmcd
#
# Track frame offsets:
#	182
#	11770
#	24782
#	37177
#	47862
#	59660
#	71667
#	86575
#	99075
#	112402
#	127272
#	140785
#	152065
#	161772
#	172725
#	182935
#
# Disc length: 2627 seconds
#
# Revision: 3
# Processed by: cddbd v1.5.2PL0 Copyright (c) Steve Scherf et al.
# Submitted via: EasyCDDAExtractor 16.0.6.1
#
DISCID=e70a4110
DTITLE=Varios - C-004 Country Classics
DYEAR=1992
DGENRE=Country
TTITLE0=Don Gibson - Oh Lonesome Me
TTITLE1=Lynn Anderson - Rose Garden
TTITLE2=Johnny Cash - I Walk the Line
TTITLE3=Jimmy Rodgers - Kisses Sweeter Than Wine
TTITLE4=Dolly Parton - Letter to Heaven
TTITLE5=Willie Nelson - I Can't Find the Time
TTITLE6=The Kingston Trio - Tom Dooley
TTITLE7=Ike and Tina Turner - Stand by Your Man
TTITLE8=Kenny Rogers - Ruby Don't Take Your Love to Town
TTITLE9=Jeannie C. Riley - Harper Valley P.T.A.
TTITLE10=Patti Page - Tennessee Waltz
TTITLE11=Roger Miller - King of the Road
TTITLE12=Donna Fargo - Sticks and Stones
TTITLE13=Hank Locklin - Send Me the Pillow That You Dream On
TTITLE14=Conway Twitty - It's Only Make Believe
TTITLE15=Freddy Fender - Wasted Days and Wasted Nights
EXTD=
EXTT0=
EXTT1=
EXTT2=
EXTT3=
EXTT4=
EXTT5=
EXTT6=
EXTT7=
EXTT8=
EXTT9=
EXTT10=
EXTT11=
EXTT12=
EXTT13=
EXTT14=
EXTT15=
PLAYORDER=
